{
  "accessors": [
    {
      "bufferView": 2,
      "componentType": 5126,
      "count": 7239,
      "max": [
        0.99551999568939209,
        -4.6595439910888672,
        1.0704059600830078
      ],
      "min": [
        -0.96631097793579102,
        -5.1903681755065918,
        0.44266700744628906
      ],
      "type": "VEC3"
    },
    {
      "bufferView": 2,
      "byteOffset": 86868,
      "componentType": 5126,
      "count": 7239,
      "max": [
        0.999062180519104,
        0.99996852874755859,
        0.99969393014907837
      ],
      "min": [
        -0.99963968992233276,
        -0.9999585747718811,
        -0.99991190433502197
      ],
      "type": "VEC3"
    },
    {
      "bufferView": 1,
      "componentType": 5126,
      "count": 7239,
      "max": [
        0.99999302625656128,
        0.99945998191833496
      ],
      "min": [
        0.00022899999748915434,
        0.00050199998077005148
      ],
      "type": "VEC2"
    },
    {
      "bufferView": 0,
      "componentType": 5125,
      "count": 11778,
      "max": [
        7238
      ],
      "min": [
        0
      ],
      "type": "SCALAR"
    },
    {
      "bufferView": 2,
      "byteOffset": 173736,
      "componentType": 5126,
      "count": 65532,
      "max": [
        8.0076265335083008,
        24.007640838623047,
        6.6909751892089844
      ],
      "min": [
        -8.0059890747070312,
        -8.0076417922973633,
        -0.30063501000404358
      ],
      "type": "VEC3"
    },
    {
      "bufferView": 2,
      "byteOffset": 960120,
      "componentType": 5126,
      "count": 65532,
      "max": [
        0.99999904632568359,
        0.99999821186065674,
        0.9999992847442627
      ],
      "min": [
        -0.99998748302459717,
        -0.99999821186065674,
        -0.9979669451713562
      ],
      "type": "VEC3"
    },
    {
      "bufferView": 1,
      "byteOffset": 57912,
      "componentType": 5126,
      "count": 65532,
      "max": [
        0.99985200166702271,
        0.99961000680923462
      ],
      "min": [
        0.00016199999663513154,
        0.00038599999970756471
      ],
      "type": "VEC2"
    },
    {
      "bufferView": 0,
      "byteOffset": 47112,
      "componentType": 5125,
      "count": 98298,
      "max": [
        65531
      ],
      "min": [
        0
      ],
      "type": "SCALAR"
    },
    {
      "bufferView": 2,
      "byteOffset": 1746504,
      "componentType": 5126,
      "count": 28460,
      "max": [
        8.0076265335083008,
        35.378520965576172,
        6.6909751892089844
      ],
      "min": [
        -8.0057287216186523,
        8.5149717330932617,
        -0.30063501000404358
      ],
      "type": "VEC3"
    },
    {
      "bufferView": 2,
      "byteOffset": 2088024,
      "componentType": 5126,
      "count": 28460,
      "max": [
        0.99999904632568359,
        0.99999821186065674,
        0.9999992847442627
      ],
      "min": [
        -0.99998748302459717,
        -0.99998271465301514,
        -0.9979669451713562
      ],
      "type": "VEC3"
    },
    {
      "bufferView": 1,
      "byteOffset": 582168,
      "componentType": 5126,
      "count": 28460,
      "max": [
        0.99985200166702271,
        0.9995110034942627
      ],
      "min": [
        0.00016199999663513154,
        0.00038599999970756471
      ],
      "type": "VEC2"
    },
    {
      "bufferView": 0,
      "byteOffset": 440304,
      "componentType": 5125,
      "count": 42690,
      "max": [
        28459
      ],
      "min": [
        0
      ],
      "type": "SCALAR"
    },
    {
      "bufferView": 2,
      "byteOffset": 2429544,
      "componentType": 5126,
      "count": 3780,
      "max": [
        19.208854675292969,
        74.155120849609375,
        22.291561126708984
      ],
      "min": [
        -19.208854675292969,
        37.306663513183594,
        -14.556891441345215
      ],
      "type": "VEC3"
    },
    {
      "bufferView": 2,
      "byteOffset": 2474904,
      "componentType": 5126,
      "count": 3780,
      "max": [
        1,
        1,
        1
      ],
      "min": [
        -1,
        -1,
        -1
      ],
      "type": "VEC3"
    },
    {
      "bufferView": 1,
      "byteOffset": 809848,
      "componentType": 5126,
      "count": 3780,
      "max": [
        0.99515002965927124,
        0.99272298812866211
      ],
      "min": [
        0.0048340000212192535,
        0.0072460002265870571
      ],
      "type": "VEC2"
    },
    {
      "bufferView": 0,
      "byteOffset": 611064,
      "componentType": 5125,
      "count": 20736,
      "max": [
        3779
      ],
      "min": [
        0
      ],
      "type": "SCALAR"
    }
  ],
  "asset": {
    "extras": {
      "author": "ksanderson (https://sketchfab.com/ksanderson)",
      "license": "CC-BY-4.0 (http://creativecommons.org/licenses/by/4.0/)",
      "source": "https://sketchfab.com/3d-models/outrun-the-jewels-rtj4d-6859bb0ff571448cac71ce3dec6bda9c",
      "title": "OutRun the Jewels - RTJ4D"
    },
    "generator": "Sketchfab-9.27.2",
    "version": "2.0"
  },
  "bufferViews": [
    {
      "buffer": 0,
      "byteLength": 694008,
      "byteOffset": 0,
      "name": "floatBufferViews",
      "target": 34963
    },
    {
      "buffer": 0,
      "byteLength": 840088,
      "byteOffset": 694008,
      "byteStride": 8,
      "name": "floatBufferViews",
      "target": 34962
    },
    {
      "buffer": 0,
      "byteLength": 2520264,
      "byteOffset": 1534096,
      "byteStride": 12,
      "name": "floatBufferViews",
      "target": 34962
    }
  ],
  "buffers": [
    {
      "byteLength": 4054360,
      "uri": "scene.bin"
    }
  ],
  "extensionsRequired": [
    "KHR_materials_pbrSpecularGlossiness"
  ],
  "extensionsUsed": [
    "KHR_materials_pbrSpecularGlossiness"
  ],
  "images": [
    {
      "uri": "textures/Hands_Material_Emission_diffuse.png"
    },
    {
      "uri": "textures/Mountains_Material_Emission_diffuse.png"
    },
    {
      "uri": "textures/Mountains_Material_Emission_specularGlossiness.png"
    },
    {
      "uri": "textures/Sun_Material_Emissions_diffuse.png"
    }
  ],
  "materials": [
    {
      "doubleSided": true,
      "emissiveFactor": [
        1,
        1,
        1
      ],
      "emissiveTexture": {
        "index": 0,
        "texCoord": 0
      },
      "extensions": {
        "KHR_materials_pbrSpecularGlossiness": {
          "diffuseFactor": [
            1,
            1,
            1,
            1
          ],
          "diffuseTexture": {
            "index": 0,
            "texCoord": 0
          },
          "glossinessFactor": 1,
          "specularFactor": [
            0,
            0,
            0
          ],
          "specularGlossinessTexture": {
            "index": 0,
            "texCoord": 0
          }
        }
      },
      "name": "Hands_Material_Emission"
    },
    {
      "doubleSided": true,
      "emissiveFactor": [
        1,
        1,
        1
      ],
      "emissiveTexture": {
        "index": 1,
        "texCoord": 0
      },
      "extensions": {
        "KHR_materials_pbrSpecularGlossiness": {
          "diffuseFactor": [
            1,
            1,
            1,
            1
          ],
          "diffuseTexture": {
            "index": 1,
            "texCoord": 0
          },
          "glossinessFactor": 1,
          "specularFactor": [
            0,
            0,
            0
          ],
          "specularGlossinessTexture": {
            "index": 2,
            "texCoord": 0
          }
        }
      },
      "name": "Mountains_Material_Emission"
    },
    {
      "doubleSided": true,
      "emissiveFactor": [
        1,
        1,
        1
      ],
      "emissiveTexture": {
        "index": 3,
        "texCoord": 0
      },
      "extensions": {
        "KHR_materials_pbrSpecularGlossiness": {
          "diffuseFactor": [
            1,
            1,
            1,
            1
          ],
          "diffuseTexture": {
            "index": 3,
            "texCoord": 0
          },
          "glossinessFactor": 0.21196816244197753,
          "specularFactor": [
            0,
            0,
            0
          ]
        }
      },
      "name": "Sun_Material_Emissions"
    }
  ],
  "meshes": [
    {
      "primitives": [
        {
          "attributes": {
            "NORMAL": 1,
            "POSITION": 0,
            "TEXCOORD_0": 2
          },
          "indices": 3,
          "material": 0,
          "mode": 4
        }
      ]
    },
    {
      "primitives": [
        {
          "attributes": {
            "NORMAL": 5,
            "POSITION": 4,
            "TEXCOORD_0": 6
          },
          "indices": 7,
          "material": 1,
          "mode": 4
        }
      ]
    },
    {
      "primitives": [
        {
          "attributes": {
            "NORMAL": 9,
            "POSITION": 8,
            "TEXCOORD_0": 10
          },
          "indices": 11,
          "material": 1,
          "mode": 4
        }
      ]
    },
    {
      "primitives": [
        {
          "attributes": {
            "NORMAL": 13,
            "POSITION": 12,
            "TEXCOORD_0": 14
          },
          "indices": 15,
          "material": 2,
          "mode": 4
        }
      ]
    }
  ],
  "nodes": [
    {
      "children": [
        1
      ],
      "name": "RootNode (gltf orientation matrix)",
      "rotation": [
        -0.70710678118654746,
        -0,
        -0,
        0.70710678118654757
      ]
    },
    {
      "children": [
        2
      ],
      "matrix": [
        0.10552619397640228,
        1.6969905984807816e-17,
        -1.6969905984807816e-17,
        0,
        -1.6969905984807816e-17,
        0.10552619397640228,
        -1.6969905984807816e-17,
        0,
        1.6969905984807816e-17,
        1.6969905984807816e-17,
        0.10552619397640228,
        0,
        4.6967502586800491e-15,
        0,
        5.3290705182007514e-15,
        1
      ],
      "name": "RootNode (model correction matrix)"
    },
    {
      "children": [
        3,
        4,
        5,
        6
      ],
      "name": "Outrun the Jewels Upload Final 9.2.20.obj.cleaner.materialmerger.gles"
    },
    {
      "mesh": 0,
      "name": ""
    },
    {
      "mesh": 1,
      "name": ""
    },
    {
      "mesh": 2,
      "name": ""
    },
    {
      "mesh": 3,
      "name": ""
    }
  ],
  "samplers": [
    {
      "magFilter": 9729,
      "minFilter": 9987,
      "wrapS": 10497,
      "wrapT": 10497
    }
  ],
  "scene": 0,
  "scenes": [
    {
      "name": "OSG_Scene",
      "nodes": [
        0
      ]
    }
  ],
  "textures": [
    {
      "sampler": 0,
      "source": 0
    },
    {
      "sampler": 0,
      "source": 1
    },
    {
      "sampler": 0,
      "source": 2
    },
    {
      "sampler": 0,
      "source": 3
    }
  ]
}

